<svg id="Layer_1" data-name="Layer 1" xmlns="http://www.w3.org/2000/svg" viewBox="0 0 100 100"><defs><style>.cls-1{fill:#fcacd1;}</style></defs><path class="cls-1" d="M95,77.7a5,5,0,0,1-.64.11l-1,.27a4.64,4.64,0,0,1-1,.27h-.44a6.64,6.64,0,0,1-1.3.31c-.31.06-.61.09-.91.12-1.77.36-3.44.45-5.12.63h-.35a21.81,21.81,0,0,1-2.29.08H79.27c-4.41-.88-11.45-2.46-11.64-8,0-5.38,2.57-10.23,5-14.9.71-1.23,1.42-2.38,2-3.44.36-.61.8-1.14,1.14-1.77s.8-1.14,1.16-1.67.78-1.15,1.05-1.76.8-1.06,1.14-1.67c.09-.09.19-.19.19-.27.26-.53.7-1,1-1.5,2.72-3.35,5.63-9.44,6-13.58a12.9,12.9,0,0,0,0-1.76,5.61,5.61,0,0,0-6-5.65c-3,0-7.5,4.24-9.17,6.44l-.27.26a2,2,0,0,0-.7.8c-.36.44-.8.88-1.15,1.32l-1.59,2.12a2,2,0,0,0-.53.79c-.27.35-.52.53-.79.89,0,.08-.09.17-.18.34-.44.53-.79,1.15-1.24,1.77l-.52.8a17.19,17.19,0,0,0-1.15,1.67c-.18.27-.26.52-.44.79s-.44.53-.62.89c-3,4.93-6,9.87-8.73,15-.53.89-.88,1.86-1.5,2.83l-.52,1.05a.66.66,0,0,1-.45.36,1.88,1.88,0,0,1,.09-1,67.5,67.5,0,0,1,6.26-12.7,18.19,18.19,0,0,0,1.5-2.3,23.17,23.17,0,0,1,1.24-2.11c1-1.58,2-3.26,2.91-4.94.17-.44.44-.88.61-1.41,0-.08.1-.18.18-.35a19.45,19.45,0,0,0,2.11-5.29,18.13,18.13,0,0,0,.53-4.94C66,24,64.81,21.83,62,21.83a7.15,7.15,0,0,0-2,.36,10.7,10.7,0,0,1-1.05.43c-.09.09-.27.18-.36.27a11.33,11.33,0,0,0-1.14,1,.68.68,0,0,0-.36.35.71.71,0,0,0-.17.44,1.76,1.76,0,0,0-1.06.7C50.88,30.29,47.27,36.12,43.74,42a17.11,17.11,0,0,0-1.23,2c0,.08-.09.17-.17.27-.27.34-.45.78-.71,1.14-.53.8-1,1.58-1.42,2.38-1.14,1.94-2.29,3.88-3.43,5.73a4.93,4.93,0,0,0-.45,1c-.08.09-.17.26-.26.36a6.61,6.61,0,0,0-.7,1.05c-1.86,3.27-3.8,6.44-5.65,9.61-1,1.59-2,3.09-2.91,4.77a16.23,16.23,0,0,1-2.47,3,.3.3,0,0,1-.26.09c-.26.08-.53,0-.53-.26a1.62,1.62,0,0,1-.18-.63c.09-6.6,4.5-13.83,8.12-19.39.79-1.32,1.67-2.64,2.55-4a4.45,4.45,0,0,0,.88-1.41,1.06,1.06,0,0,1,.27-.35c1.32-1.77,2.64-3.61,3.88-5.46.09-.19.26-.36.35-.53,1.15-1.6,2.21-3.09,3.35-4.59.18-.27.27-.62.44-.89s.44-.44.62-.7c1.15-1.59,2.2-3.17,3.26-4.67A12.56,12.56,0,0,0,49,25.62a8.06,8.06,0,0,0-.43-4.32c-1.24-3.26-5.12-5.73-8.47-6H39.6a4.4,4.4,0,0,0-1-.08c-.53,0-1,.08-1.5.08-1,.09-1.85.27-2.82.36a.88.88,0,0,1-.44.08c-.44.18-1,.27-1.41.45a5.76,5.76,0,0,0-1.77.52,2.63,2.63,0,0,1-.88.27C21.26,20,7.23,32.32,5.74,40.61a.31.31,0,0,1-.09.26A8.91,8.91,0,0,0,5,43.43a15.54,15.54,0,0,0,.08,2.83,7.53,7.53,0,0,0,6,6.17,6.4,6.4,0,0,0,2.48.43,7.86,7.86,0,0,0,2,.1.73.73,0,0,0,.44-.1.41.41,0,0,0,.08-.7c-.08-.17-.26-.27-.44-.44a5.08,5.08,0,0,1-1.76-2.3,3,3,0,0,1-.53-1.94,9.43,9.43,0,0,1,.08-2.72,20.23,20.23,0,0,1,2-5.39c.17-.44.44-.79.61-1.23a.45.45,0,0,0,.18-.35,9.06,9.06,0,0,0,.79-1.14c.45-.53.7-1.16,1.15-1.69,1-1.41,2-2.73,3.09-4.13a2.23,2.23,0,0,1,.26-.27c.18-.27.44-.44.62-.7,1.06-1.07,2-2.3,3.08-3.27C28,23.86,33,20.15,36.16,19.18c.35-.17.79-.26,1.14-.44a.33.33,0,0,1,.27-.09,10.33,10.33,0,0,0,1.76-.26,7,7,0,0,1,1.41-.09,3.86,3.86,0,0,1,1.33.35,1.51,1.51,0,0,1,.88,1.5A9.74,9.74,0,0,1,41.18,25a5.84,5.84,0,0,0-.26.62,1.24,1.24,0,0,1-.18.53c0,.26-.26.26-.35.44a11.74,11.74,0,0,0-1,1.59,1.59,1.59,0,0,0-.26.44c-.53.8-1.06,1.5-1.59,2.29a67.86,67.86,0,0,1-4.23,6,7.63,7.63,0,0,1-1.15,1.68,5,5,0,0,0-.88,1.06c-1.15,1.58-2.38,3.18-3.62,4.76-.44.7-1,1.33-1.49,2S25,48.11,24.34,48.9c-.35.52-.79,1.05-1.24,1.68a20.71,20.71,0,0,1-1.31,1.67c-.8,1.32-1.59,2.46-2.38,3.7A26.2,26.2,0,0,0,14.73,68a13.56,13.56,0,0,0,.09,3.18c.61,3.35,3,5.29,6.17,6.17.44.17.89.09,1.24.26a7.66,7.66,0,0,0,2,0,4.56,4.56,0,0,0,3.52-1.77,5.47,5.47,0,0,1,.62-.7A37.91,37.91,0,0,0,31,71.55c.53-.87,1.15-1.67,1.77-2.55s1.14-1.85,1.76-2.74c0-.08.09-.17.18-.26a1.46,1.46,0,0,1,.53-1c.17-.09.17-.19.26-.36.27-.44.62-.8.88-1.24.88-1.58,1.77-3.08,2.74-4.58.17-.27.26-.53.44-.8a2.43,2.43,0,0,1,.26-.44v-.44a3.23,3.23,0,0,0,.88-1c1.06-1.76,2-3.53,3.18-5.29,1.77-3.17,3.61-6.26,5.46-9.35,1.94-3.53,4.15-7,6.26-10.4.27-.45.71-1.15,1.24-1.33a.52.52,0,0,1,.53.1,1.2,1.2,0,0,1,.26,1.05,7.31,7.31,0,0,0-.43,1.5A15.82,15.82,0,0,1,56.53,34a19.6,19.6,0,0,1-1,2c-.26.53-.53,1.15-.8,1.68-.7,1.23-1.32,2.47-1.94,3.71-.44.7-.79,1.41-1.14,2.11-2,3.62-4,7.4-5.73,11.19-.62,1.16-1.15,2.3-1.68,3.54A12.74,12.74,0,0,0,43,64.15a6.1,6.1,0,0,0,4,5,5.11,5.11,0,0,0,1.15.44,4.32,4.32,0,0,0,1.5.19A2.89,2.89,0,0,0,52,68.12c.53-.89,1-1.76,1.5-2.56.7-1.24,1.41-2.46,2.11-3.7.18-.36.27-.7.44-1.06A20.79,20.79,0,0,1,57.85,58a6.37,6.37,0,0,0,.36-.7l2.11-3.71c.35-.61.7-1.14,1-1.76.53-.89,1.06-1.76,1.5-2.65a84.59,84.59,0,0,1,4.76-7.58c.09-.17.19-.27.27-.44.36-.53.7-1.06,1.06-1.59a3.66,3.66,0,0,0,.44-.79c.09-.09.09-.18.17-.26.27-.27.45-.54.71-.8.79-1.15,1.59-2.21,2.38-3.35.09,0,.09-.09.18-.18,1-1.14,1.94-2.29,2.91-3.34a4.77,4.77,0,0,1,1.58-1,.32.32,0,0,1,.44.26,1.75,1.75,0,0,1,.1.71C77.43,34,72.58,41.67,70.73,44.4c-.53.89-1,1.77-1.5,2.56a.77.77,0,0,0-.18.18c-.36.79-.79,1.5-1.15,2.28-.35.53-.61,1.16-1,1.68C66.05,53,64.2,56.92,64,58.69c-.08.43-.35.79-.44,1.23a42.14,42.14,0,0,0-.79,4.5c0,.53-.09,1.06-.09,1.5,0,1.23,0,2.47.09,3.69,1.15,12,12.16,15.17,22.65,15.17a2.13,2.13,0,0,0,.71-.08.53.53,0,0,1,.36-.09,2.12,2.12,0,0,0,.7.09c.17,0,.36-.09.53-.09a5.63,5.63,0,0,0,.71,0c.64,0,1.3-.07,1.94-.13q1.32-.17,2.64-.36A12.1,12.1,0,0,0,95,77.7ZM62,26.94a.58.58,0,0,1,.8.09,1,1,0,0,1-.71.26.18.18,0,0,1-.09-.35Zm-2.11,0c0-.09.17-.17.35-.17s.09,0,.17.08.19.18.19.27-.19.17-.27.17a.37.37,0,0,1-.27-.08C59.88,27.21,59.79,27,59.88,26.94Zm.17,2.92c0,.08,0,.08-.09.08v-.08Zm-.7,4A2.72,2.72,0,0,1,61,33.55a.32.32,0,0,1,.1.27,1.66,1.66,0,0,1-.8.35h-1l-.09-.09C59.26,34,59.26,34,59.35,33.82Zm-.27,3.61s.1,0,.1.09h-.1C59,37.43,59,37.43,59.08,37.43ZM8.3,43.25h.26c.09.1-.09.18-.17.18S8.2,43.35,8.3,43.25Zm.35,2.12c-.09-.08-.26-.08-.35-.18V45.1a.54.54,0,0,1,.61,0C8.83,45.29,8.74,45.29,8.65,45.37ZM9.17,48l-.08.1C9,48.11,9,48,9,47.93,9.17,47.84,9.27,47.93,9.17,48Zm.63-4.14v-.08a.08.08,0,0,1,.08.08Zm.7,1.5a.8.8,0,0,1-.44-.18.28.28,0,0,1,.08-.17.53.53,0,0,1,.71,0c.09,0,.09.08.09.17C10.68,45.29,10.59,45.37,10.5,45.37Zm.35-3.62a.71.71,0,0,1-.71-.17.47.47,0,0,1,.45-.36c.09.09.18.09.26.19s.09.17.09.26Zm.89.71-.09-.08h.09Zm.7-5.37-.62-.19c0-.08-.08-.17,0-.25.36-.19.53-.36.8-.36a.41.41,0,0,1,.53.09c.17.08.34.17.34.35C13.49,37.09,12.52,37.09,12.44,37.09Zm1.41-4.86a.39.39,0,0,1-.44,0,.09.09,0,0,0-.09-.09.59.59,0,0,1,.62-.17c0,.09.09.09.09.17A.31.31,0,0,1,13.85,32.23Zm1.77,0c.08-.09.17-.17.26-.09a.09.09,0,0,1,.09.09.19.19,0,0,1-.18.18A.18.18,0,0,1,15.62,32.23Zm.52,1.59h-.26c-.09-.08-.18-.18-.18-.27s.09-.17.18-.17h.26c.09.09.18.09.18.17S16.23,33.74,16.14,33.82Zm3.27-7.67h.08c0,.09,0,.09-.08.09s-.09,0-.09,0S19.32,26.06,19.41,26.15Zm.26,1.14a.2.2,0,0,1-.18.19,1.18,1.18,0,0,1-.52.08,1.85,1.85,0,0,1-.62-.08.2.2,0,0,1-.18-.19c0-.17,0-.26.09-.35s.27-.09.35-.17a1.72,1.72,0,0,1,1,.26C19.67,27,19.75,27.21,19.67,27.29Zm1.59-1c0-.08.09-.08.09-.08l.08.08Zm2.82-3.16c-.09.17-.26.17-.53.08,0,0-.09,0-.09-.08s0-.19.09-.19a.36.36,0,0,1,.27-.08h.26Q24.22,23,24.08,23.16Zm19.66,8.1a.18.18,0,1,1,0-.35l.18.18C43.83,31.09,43.83,31.17,43.74,31.26Zm.09-2.2a.31.31,0,0,1-.18-.09c0-.26.09-.35.27-.35a.18.18,0,0,1,.17.17C44.09,29,44.09,29.06,43.83,29.06Zm2.2-6.7a.24.24,0,0,1-.26.17c-.08,0-.18-.08-.35-.17A.72.72,0,0,1,46,22.36Zm-.61,2.82c.17-.27.44-.27.7-.08-.17.25-.35.34-.43.34a.31.31,0,0,1-.27-.09C45.33,25.35,45.33,25.18,45.42,25.18Zm-.53.26a.09.09,0,0,0,.09.1c.08.08,0,.26-.09.26s-.27,0-.27-.09S44.71,25.44,44.89,25.44Zm-1.33.71a.73.73,0,0,1,.71.44,1,1,0,0,1-.71.26.54.54,0,0,1-.25-.44A.28.28,0,0,1,43.56,26.15Zm-.7,5.65c.09-.1.18-.19.26-.1s.09.1.19.1a.39.39,0,0,1-.36.34s-.09,0-.09-.08A.16.16,0,0,1,42.86,31.8Zm-1.59,2.37c-.09.09-.17,0-.17-.09a.24.24,0,0,1,.26-.17.25.25,0,0,0,.09.17C41.36,34.08,41.36,34.17,41.27,34.17Zm0-3a.54.54,0,0,1,.36.09v.18c-.27.09-.45.09-.62-.09C41.1,31.17,41.18,31.17,41.27,31.17ZM39.51,37h-.09c-.09,0,0-.09.09-.09ZM40,32.77c0-.1.09-.19.26-.19a.54.54,0,0,1,.18.45.17.17,0,0,1-.27.08C40,33,40,32.94,40,32.77Zm-.62.87a.09.09,0,0,1,.09-.09.32.32,0,0,1,.09.19c-.09.08-.18.08-.18,0S39.33,33.64,39.42,33.64Zm-4.05,6.53a.26.26,0,0,1,.35,0v.09a.08.08,0,0,1-.09.08c-.09.1-.18.1-.26,0A.11.11,0,0,1,35.37,40.17Zm-1.94,5.46a.3.3,0,0,1-.18-.08c0-.09,0-.18.18-.18l.08.09A.26.26,0,0,1,33.43,45.63Zm1-4c.17,0,.44,0,.52.08-.08.36-.17.36-.26.36s-.18-.09-.35-.27A.31.31,0,0,0,34.4,41.67Zm-1,.71a6.81,6.81,0,0,1,1.41.17c0,.35-.18.35-.27.44H34c-.09,0-.26.09-.35.09s-.26-.09-.35-.18-.09-.18-.09-.26S33.34,42.46,33.43,42.38ZM33,44.05h.89a.67.67,0,0,1,.35.17c.09.1.09.27,0,.27a.33.33,0,0,1-.27.09,1.39,1.39,0,0,1-.61.08,1.42,1.42,0,0,1-.53-.08c-.09,0-.18,0-.18-.09C32.72,44.13,32.9,44.05,33,44.05Zm-.61-1.15v.18a.3.3,0,0,1-.36,0c-.08,0-.08-.18-.08-.18A.43.43,0,0,1,32.37,42.9Zm-.44,4.24c-.18.34-.27.34-.27.34A1.46,1.46,0,0,1,31,47.4c0-.09-.08-.26,0-.36s.18-.08.27-.08A1.46,1.46,0,0,1,31.93,47.14Zm-1.24-2.92H31c.09,0,.09.1.18.18a.31.31,0,0,1-.09.18.44.44,0,0,1-.53-.09s0-.09-.08-.09A.19.19,0,0,1,30.69,44.22Zm-1.85,2.56s.09,0,.09-.08.09.08.18.08,0,.18-.18.18S28.75,46.87,28.84,46.78Zm-.53,3.53c.09-.09.35-.09.35.08s0,.19-.08.19-.18,0-.27,0A.17.17,0,0,1,28.31,50.31Zm-.79,2.55c.09,0,.17,0,.35.18,0,.18-.18.26-.35.18A.27.27,0,0,1,27.52,52.86Zm-1.32-1a.88.88,0,0,1,.44.08,1.69,1.69,0,0,1-1.41.63c-.18,0-.27,0-.27-.09A1.81,1.81,0,0,1,26.2,51.81Zm-.53,3.35.08.08c0,.1-.08.18-.17.27h-.53a.32.32,0,0,1-.09-.27C25.23,55.07,25.4,55,25.67,55.16ZM19.75,65.74c0,.08.1.08,0,.18s0,.17-.08.17-.18,0-.18.09a.25.25,0,0,0-.17-.09c-.09,0-.18-.09-.09-.17A.38.38,0,0,1,19.75,65.74Zm-.43-1.5c.09,0,.09.08.09.18s0,.17-.09.09-.18,0-.18-.09A.19.19,0,0,1,19.32,64.24ZM18,71a.52.52,0,0,1-.53-.26l.09-.09a1.14,1.14,0,0,1,.61-.1.2.2,0,0,1,.18.19C18.35,71,18.17,71,18,71ZM18.53,67c-.18,0-.27-.08-.27-.26a.19.19,0,0,1,.18-.18c.17,0,.26.09.26.18S18.61,66.89,18.53,67Zm.25.36a.76.76,0,0,1,.1-.27h.26a.28.28,0,0,1,.18.09c.09,0,.17.18.09.27S19,67.5,18.78,67.33Zm.63,3c-.09-.09.08-.19.26-.19s.08,0,.18.19a.2.2,0,0,1-.18.17C19.49,70.5,19.41,70.5,19.41,70.33Zm.26,1.49c-.09,0-.18-.08-.09-.17s.09-.1.09-.18c.18.08.35.08.35.35A.26.26,0,0,1,19.67,71.82Zm.53-9.43c-.09,0-.09-.09-.18-.09s.09-.09.09-.17a.33.33,0,0,1,.18.08C20.38,62.21,20.29,62.39,20.2,62.39ZM21,67.15h-.44a.31.31,0,0,0-.09-.18.36.36,0,0,1,.09-.18,1.36,1.36,0,0,1,.8,0C21.26,67.15,21.17,67.15,21,67.15Zm-.08-1.33a.29.29,0,0,1,.35,0c0,.1-.09.1-.09.18A.39.39,0,0,1,20.91,65.82Zm.88-1h-.36a.18.18,0,0,1,0-.35,1.35,1.35,0,0,1,.89,0C22.14,64.77,22,64.77,21.79,64.77Zm.61-2.2c-.17.26-.44.34-.79.53a.61.61,0,0,1-.35-.19v-.34c-.09-.27.09-.44.35-.44H22a1,1,0,0,0,.36.08C22.49,62.21,22.49,62.47,22.4,62.57Zm-1-2.57v-.17a.17.17,0,0,1,.27,0s.09,0,0,.09A.17.17,0,0,1,21.43,60Zm.18-.78c-.35-.1-.79-.19-1.23-.27-.09,0-.18-.17-.09-.36s.26-.34.62-.34h.17a6.59,6.59,0,0,0,1.68.34A2.25,2.25,0,0,1,21.61,59.22ZM23.2,55.6c-.1.08-.35,0-.44-.18s0-.35.09-.35.35-.09.52-.09a.33.33,0,0,1,.27.09.19.19,0,0,1,.18.17A6.09,6.09,0,0,1,23.2,55.6Zm35-16,.17.17a.2.2,0,0,1-.17.19c0,.08-.1.08-.19.08s-.17,0-.17-.08A.33.33,0,0,1,58.21,39.64Zm-3.54,8c0,.08,0,.17-.26.17a.19.19,0,0,1-.18-.17c0-.1.09-.19.27-.19S54.76,47.57,54.67,47.67Zm-1-1.07a3.11,3.11,0,0,1,.89.27L54.5,47a2.37,2.37,0,0,1-1.06,0c-.09,0-.18-.09-.18-.26A.88.88,0,0,1,53.7,46.6ZM47.71,57a1.37,1.37,0,0,1,1.41-.36.27.27,0,0,1,.18.1c.08,0,.08.17,0,.17a1.73,1.73,0,0,1-1.33.44.32.32,0,0,0-.17-.08C47.71,57.28,47.63,57,47.71,57Zm-.79,4.49h-.09c0-.17.09-.17.09-.17S47,61.42,46.92,61.5Zm-.18-3.17v-.18a1.24,1.24,0,0,1,.7-.43,3.42,3.42,0,0,1,.89.53s0,.17-.09.17a2.47,2.47,0,0,1-.71.09A1.42,1.42,0,0,1,46.74,58.33Zm1.32,8.29a.28.28,0,0,1-.18-.09c-.08,0,0-.17,0-.17a2.79,2.79,0,0,1,1.42-.62.63.63,0,0,1,.44.18A15.89,15.89,0,0,1,48.06,66.62Zm2.38-12.17h-.7a1.69,1.69,0,0,1-.17-.18.18.18,0,0,1,.17-.17.72.72,0,0,1,.61,0c.09,0,.09.09.18.09S50.53,54.45,50.44,54.45Zm.09-1.76c.18-.26.26-.62.53-.8a.56.56,0,0,1,.35-.08c.09,0,.18.18.18.26s-.27.26-.18.53a.23.23,0,0,1-.26.26.35.35,0,0,1-.44,0C50.62,52.86,50.62,52.77,50.53,52.69ZM78.66,40.44c-.09,0-.09-.1-.18-.1.09,0,.09-.08.36-.08C78.74,40.44,78.74,40.44,78.66,40.44Zm2-1.6c-.17.09-.34,0-.34-.08,0-.26.34-.26.52-.26H81C81,38.76,80.86,38.84,80.68,38.84Zm2-4.93s-.1-.09-.1-.17a.28.28,0,0,1,.1-.19c.08,0,.17,0,.17.09S82.89,33.91,82.72,33.91ZM82,26.68a.28.28,0,0,1,.18-.09.09.09,0,0,1,.09.09c0,.09,0,.17-.09.17S81.92,26.77,82,26.68Zm0,3.71a.86.86,0,0,1,.44-.1h.44c.17,0,.44.35.44.54h-.17c-.36,0-.71-.1-1.07-.1,0,0-.08,0-.17-.17A.27.27,0,0,1,82,30.39Zm-.18,2v.09a.08.08,0,0,1-.08.08c-.1,0-.18,0-.18-.08A.31.31,0,0,1,81.83,32.41ZM81.65,36c.1,0,.1,0,.18.1-.08.43-.44.53-.71.61a.7.7,0,0,0-.26-.08.21.21,0,0,1-.18-.19A3.6,3.6,0,0,1,81.65,36Zm-1.23-8.64v.18a.32.32,0,0,1-.27.09.42.42,0,0,1-.08-.27C80.15,27.29,80.24,27.29,80.42,27.38Zm-.35,12c.08,0,.17,0,.17.1s-.09.17-.17.17-.26.09-.44.17-.26.09-.45.09a2,2,0,0,1-.78-.53l.08-.08A3.3,3.3,0,0,1,80.07,39.37ZM78,37.43a.58.58,0,0,1,.52-.08c.09,0,.18,0,.18.08-.18.27-.26.27-.45.27a.62.62,0,0,1-.34-.09C77.87,37.52,77.87,37.52,78,37.43Zm-.36,3.35a.54.54,0,0,1,.36.09c0,.1,0,.1-.19.18s-.08,0-.17-.18Zm-.17-1.58c0,.09,0,.09-.1.09s-.09-.09-.09-.18S77.43,39.11,77.43,39.2ZM77,43.08a.25.25,0,0,1,.34,0c0,.08,0,.17-.09.17s-.17.1-.25,0ZM75.66,45c.08,0,.09,0,.15.07Zm-.35-2.2a1,1,0,0,1,.61.17v.17c-.09,0-.09.09-.17.09a1.1,1.1,0,0,1-.8,0C75.05,42.82,75.13,42.82,75.31,42.82Zm-.53,5.72v.1c-.09,0-.09-.1-.09-.1Zm-1.86-.7c-.08-.09-.17-.09-.17-.17s.09-.19.17-.19.09.09.19.09C73.11,47.75,73,47.84,72.92,47.84Zm-.08-2.38a.92.92,0,0,1,.44-.09c.09.09.09.09.09.18v.18a1.25,1.25,0,0,1-.53.08c-.09-.08-.09-.08-.09-.18S72.75,45.46,72.84,45.46Zm-.36,6.09s.1,0,0,.08-.08,0-.08-.08Zm-1-3.35c.18,0,.27.08.27.25v.19c-.19.08-.36.17-.53,0a.1.1,0,0,1-.1-.1A.32.32,0,0,1,71.43,48.2Zm-2.83,7V55c.09-.18.27-.27.36-.18s.09.18.09.27a.37.37,0,0,1-.26.35s-.19,0-.19-.08Zm-.7,4.4c0-.08.09-.08.18-.08s.08,0,.18.08c-.1.1-.18.1-.18.18C67.9,59.66,67.82,59.66,67.9,59.56Zm-1.32,2.65c-.09,0-.09-.08-.09-.17a.24.24,0,0,0,.17-.1c.09.1.19.1.19.36C66.66,62.39,66.58,62.3,66.58,62.21ZM92.5,81.52h-.09c0-.09,0-.09.09-.17a.17.17,0,0,1,.27.08C92.77,81.52,92.67,81.61,92.5,81.52Zm.62-.7a.55.55,0,0,1-.53,0v-.18a.55.55,0,0,1,.53,0,.3.3,0,0,0,.09.18Z"/></svg>